<?xml version="1.0" encoding="UTF-8" standalone="no"?>
<!DOCTYPE svg PUBLIC "-//W3C//DTD SVG 1.1//EN"
 "http://www.w3.org/Graphics/SVG/1.1/DTD/svg11.dtd">
<!-- Generated by graphviz version 2.38.0 (20140413.2041)
 -->
<!-- Title: james_bond_saga Pages: 1 -->
<svg width="2178pt" height="371pt"
 viewBox="0.00 0.00 2178.19 370.95" xmlns="http://www.w3.org/2000/svg" xmlns:xlink="http://www.w3.org/1999/xlink">
<g id="graph0" class="graph" transform="scale(1 1) rotate(0) translate(4 366.953)">
<title>james_bond_saga</title>
<polygon fill="white" stroke="none" points="-4,4 -4,-366.953 2174.19,-366.953 2174.19,4 -4,4"/>
<!-- JB -->
<g id="node1" class="node"><title>JB</title>
<ellipse fill="none" stroke="black" cx="1245.05" cy="-325.477" rx="58.8803" ry="37.4533"/>
<text text-anchor="middle" x="1245.05" y="-336.777" font-family="Times,serif" font-size="14.00">James Bond</text>
<text text-anchor="middle" x="1245.05" y="-321.777" font-family="Times,serif" font-size="14.00">Dr. No</text>
<text text-anchor="middle" x="1245.05" y="-306.777" font-family="Times,serif" font-size="14.00">1968</text>
</g>
<!-- FR -->
<g id="node2" class="node"><title>FR</title>
<ellipse fill="none" stroke="black" cx="422.046" cy="-162" rx="37.0935" ry="18"/>
<text text-anchor="middle" x="422.046" y="-158.3" font-family="Times,serif" font-size="14.00">Friends</text>
</g>
<!-- JB&#45;&gt;FR -->
<g id="edge1" class="edge"><title>JB&#45;&gt;FR</title>
<path fill="none" stroke="black" d="M1186.54,-321.429C1081.45,-315.006 854.306,-296.801 668.046,-252 591.16,-233.507 505.063,-198.999 457.852,-178.816"/>
<polygon fill="black" stroke="black" points="458.954,-175.48 448.385,-174.737 456.184,-181.908 458.954,-175.48"/>
</g>
<!-- FO -->
<g id="node3" class="node"><title>FO</title>
<ellipse fill="none" stroke="black" cx="1203.05" cy="-162" rx="27.0966" ry="18"/>
<text text-anchor="middle" x="1203.05" y="-158.3" font-family="Times,serif" font-size="14.00">Foes</text>
</g>
<!-- JB&#45;&gt;FO -->
<g id="edge2" class="edge"><title>JB&#45;&gt;FO</title>
<path fill="none" stroke="black" d="M1235.62,-288.238C1227.85,-258.358 1217,-216.652 1210,-189.735"/>
<polygon fill="black" stroke="black" points="1213.34,-188.656 1207.43,-179.859 1206.56,-190.418 1213.34,-188.656"/>
</g>
<!-- VE -->
<g id="node4" class="node"><title>VE</title>
<ellipse fill="none" stroke="black" cx="1099.05" cy="-234" rx="41.6928" ry="18"/>
<text text-anchor="middle" x="1099.05" y="-230.3" font-family="Times,serif" font-size="14.00">Vehicles</text>
</g>
<!-- JB&#45;&gt;VE -->
<g id="edge3" class="edge"><title>JB&#45;&gt;VE</title>
<path fill="none" stroke="black" d="M1203.21,-298.836C1180.2,-284.738 1152.12,-267.525 1130.91,-254.528"/>
<polygon fill="black" stroke="black" points="1132.63,-251.478 1122.28,-249.237 1128.97,-257.446 1132.63,-251.478"/>
</g>
<!-- WO -->
<g id="node5" class="node"><title>WO</title>
<ellipse fill="none" stroke="black" cx="1288.05" cy="-162" rx="39.7935" ry="18"/>
<text text-anchor="middle" x="1288.05" y="-158.3" font-family="Times,serif" font-size="14.00">Women</text>
</g>
<!-- JB&#45;&gt;WO -->
<g id="edge4" class="edge"><title>JB&#45;&gt;WO</title>
<path fill="none" stroke="black" d="M1254.7,-288.238C1262.61,-258.522 1273.64,-217.11 1280.81,-190.18"/>
<polygon fill="black" stroke="black" points="1284.25,-190.846 1283.44,-180.282 1277.49,-189.045 1284.25,-190.846"/>
</g>
<!-- OR -->
<g id="node6" class="node"><title>OR</title>
<ellipse fill="none" stroke="black" cx="737.046" cy="-234" rx="59.5901" ry="18"/>
<text text-anchor="middle" x="737.046" y="-230.3" font-family="Times,serif" font-size="14.00">Organizations</text>
</g>
<!-- JB&#45;&gt;OR -->
<g id="edge5" class="edge"><title>JB&#45;&gt;OR</title>
<path fill="none" stroke="black" d="M1188.74,-314.559C1092.31,-297.574 896.387,-263.066 797.308,-245.614"/>
<polygon fill="black" stroke="black" points="797.617,-242.115 787.161,-243.827 796.402,-249.009 797.617,-242.115"/>
</g>
<!-- LO -->
<g id="node7" class="node"><title>LO</title>
<ellipse fill="none" stroke="black" cx="1505.05" cy="-234" rx="45.4919" ry="18"/>
<text text-anchor="middle" x="1505.05" y="-230.3" font-family="Times,serif" font-size="14.00">Locations</text>
</g>
<!-- JB&#45;&gt;LO -->
<g id="edge6" class="edge"><title>JB&#45;&gt;LO</title>
<path fill="none" stroke="black" d="M1296.1,-306.906C1344.6,-290.215 1416.69,-265.407 1462.25,-249.726"/>
<polygon fill="black" stroke="black" points="1463.52,-252.993 1471.84,-246.429 1461.24,-246.374 1463.52,-252.993"/>
</g>
<!-- WE -->
<g id="node8" class="node"><title>WE</title>
<ellipse fill="none" stroke="black" cx="1889.05" cy="-234" rx="44.393" ry="18"/>
<text text-anchor="middle" x="1889.05" y="-230.3" font-family="Times,serif" font-size="14.00">Weapons</text>
</g>
<!-- JB&#45;&gt;WE -->
<g id="edge7" class="edge"><title>JB&#45;&gt;WE</title>
<path fill="none" stroke="black" d="M1302.2,-316.536C1426.35,-299.286 1719.07,-258.616 1837.73,-242.129"/>
<polygon fill="black" stroke="black" points="1838.57,-245.547 1847.99,-240.704 1837.61,-238.613 1838.57,-245.547"/>
</g>
<!-- GD -->
<g id="node9" class="node"><title>GD</title>
<ellipse fill="none" stroke="black" cx="2051.05" cy="-234" rx="39.7935" ry="18"/>
<text text-anchor="middle" x="2051.05" y="-230.3" font-family="Times,serif" font-size="14.00">Gadgets</text>
</g>
<!-- JB&#45;&gt;GD -->
<g id="edge8" class="edge"><title>JB&#45;&gt;GD</title>
<path fill="none" stroke="black" d="M1302.99,-319.461C1422.63,-308.882 1705.58,-282.714 1942.05,-252 1962.49,-249.344 1985.02,-245.916 2004.26,-242.834"/>
<polygon fill="black" stroke="black" points="2004.97,-246.265 2014.28,-241.213 2003.85,-239.355 2004.97,-246.265"/>
</g>
<!-- MOPE -->
<g id="node10" class="node"><title>MOPE</title>
<ellipse fill="none" stroke="black" cx="270.046" cy="-90" rx="57.6901" ry="18"/>
<text text-anchor="middle" x="270.046" y="-86.3" font-family="Times,serif" font-size="14.00">Moneypenny</text>
</g>
<!-- FR&#45;&gt;MOPE -->
<g id="edge9" class="edge"><title>FR&#45;&gt;MOPE</title>
<path fill="none" stroke="black" d="M395.916,-148.967C372.378,-138.127 337.414,-122.025 310.305,-109.541"/>
<polygon fill="black" stroke="black" points="311.623,-106.294 301.076,-105.29 308.695,-112.652 311.623,-106.294"/>
</g>
<!-- QUAR -->
<g id="node11" class="node"><title>QUAR</title>
<ellipse fill="none" stroke="black" cx="156.046" cy="-90" rx="37.8943" ry="18"/>
<text text-anchor="middle" x="156.046" y="-86.3" font-family="Times,serif" font-size="14.00">Quarrel</text>
</g>
<!-- FR&#45;&gt;QUAR -->
<g id="edge10" class="edge"><title>FR&#45;&gt;QUAR</title>
<path fill="none" stroke="black" d="M388.722,-154.127C345.527,-144.947 268.038,-127.554 203.046,-108 200.148,-107.128 197.167,-106.178 194.18,-105.188"/>
<polygon fill="black" stroke="black" points="195.306,-101.874 184.712,-101.933 193.03,-108.494 195.306,-101.874"/>
</g>
<!-- MMMM -->
<g id="node12" class="node"><title>MMMM</title>
<ellipse fill="none" stroke="black" cx="373.046" cy="-90" rx="27" ry="18"/>
<text text-anchor="middle" x="373.046" y="-86.3" font-family="Times,serif" font-size="14.00">M</text>
</g>
<!-- FR&#45;&gt;MMMM -->
<g id="edge11" class="edge"><title>FR&#45;&gt;MMMM</title>
<path fill="none" stroke="black" d="M410.681,-144.765C404.471,-135.893 396.662,-124.738 389.77,-114.892"/>
<polygon fill="black" stroke="black" points="392.614,-112.851 384.012,-106.666 386.879,-116.865 392.614,-112.851"/>
</g>
<!-- FELE -->
<g id="node13" class="node"><title>FELE</title>
<ellipse fill="none" stroke="black" cx="592.046" cy="-90" rx="51.9908" ry="18"/>
<text text-anchor="middle" x="592.046" y="-86.3" font-family="Times,serif" font-size="14.00">Felix Leiter</text>
</g>
<!-- FR&#45;&gt;FELE -->
<g id="edge12" class="edge"><title>FR&#45;&gt;FELE</title>
<path fill="none" stroke="black" d="M449.359,-149.753C476.663,-138.511 519.002,-121.077 550.478,-108.116"/>
<polygon fill="black" stroke="black" points="551.954,-111.293 559.868,-104.249 549.289,-104.821 551.954,-111.293"/>
</g>
<!-- STRG -->
<g id="node14" class="node"><title>STRG</title>
<ellipse fill="none" stroke="black" cx="470.046" cy="-90" rx="51.9908" ry="18"/>
<text text-anchor="middle" x="470.046" y="-86.3" font-family="Times,serif" font-size="14.00">Strangways</text>
</g>
<!-- FR&#45;&gt;STRG -->
<g id="edge13" class="edge"><title>FR&#45;&gt;STRG</title>
<path fill="none" stroke="black" d="M433.178,-144.765C439.031,-136.23 446.332,-125.582 452.89,-116.019"/>
<polygon fill="black" stroke="black" points="455.871,-117.86 458.64,-107.633 450.098,-113.901 455.871,-117.86"/>
</g>
<!-- PUFE -->
<g id="node15" class="node"><title>PUFE</title>
<ellipse fill="none" stroke="black" cx="50.0456" cy="-90" rx="50.0912" ry="18"/>
<text text-anchor="middle" x="50.0456" y="-86.3" font-family="Times,serif" font-size="14.00">Puss Feller</text>
</g>
<!-- FR&#45;&gt;PUFE -->
<g id="edge14" class="edge"><title>FR&#45;&gt;PUFE</title>
<path fill="none" stroke="black" d="M386.585,-156.325C328.29,-148.344 208.724,-130.724 109.046,-108 104.953,-107.067 100.724,-106.019 96.4969,-104.913"/>
<polygon fill="black" stroke="black" points="97.2701,-101.497 86.7025,-102.255 95.4368,-108.252 97.2701,-101.497"/>
</g>
<!-- HORY -->
<g id="node16" class="node"><title>HORY</title>
<ellipse fill="none" stroke="black" cx="1182.05" cy="-90" rx="57.6901" ry="18"/>
<text text-anchor="middle" x="1182.05" y="-86.3" font-family="Times,serif" font-size="14.00">Honey Ryder</text>
</g>
<!-- FR&#45;&gt;HORY -->
<g id="edge15" class="edge"><title>FR&#45;&gt;HORY</title>
<path fill="none" stroke="black" d="M456.468,-154.73C477.627,-151.088 505.328,-146.7 530.046,-144 788.997,-115.716 857.676,-148.208 1115.05,-108 1120.18,-107.199 1125.49,-106.182 1130.77,-105.047"/>
<polygon fill="black" stroke="black" points="1131.87,-108.385 1140.84,-102.742 1130.31,-101.562 1131.87,-108.385"/>
</g>
<!-- DRNO -->
<g id="node17" class="node"><title>DRNO</title>
<ellipse fill="none" stroke="black" cx="904.046" cy="-90" rx="35.9954" ry="18"/>
<text text-anchor="middle" x="904.046" y="-86.3" font-family="Times,serif" font-size="14.00">Dr. No</text>
</g>
<!-- FO&#45;&gt;DRNO -->
<g id="edge16" class="edge"><title>FO&#45;&gt;DRNO</title>
<path fill="none" stroke="black" d="M1182.29,-150.294C1177.09,-147.94 1171.45,-145.658 1166.05,-144 1072.58,-115.338 1043.45,-133.398 949.046,-108 946.248,-107.247 943.383,-106.387 940.519,-105.461"/>
<polygon fill="black" stroke="black" points="941.485,-102.092 930.89,-102.125 939.194,-108.706 941.485,-102.092"/>
</g>
<!-- PROF -->
<g id="node18" class="node"><title>PROF</title>
<ellipse fill="none" stroke="black" cx="1322.05" cy="-90" rx="63.8893" ry="18"/>
<text text-anchor="middle" x="1322.05" y="-86.3" font-family="Times,serif" font-size="14.00">Professor Dent</text>
</g>
<!-- FO&#45;&gt;PROF -->
<g id="edge17" class="edge"><title>FO&#45;&gt;PROF</title>
<path fill="none" stroke="black" d="M1222.7,-149.441C1240.14,-139.18 1266.04,-123.943 1287.02,-111.6"/>
<polygon fill="black" stroke="black" points="1288.83,-114.598 1295.68,-106.511 1285.28,-108.564 1288.83,-114.598"/>
</g>
<!-- TBMI -->
<g id="node19" class="node"><title>TBMI</title>
<ellipse fill="none" stroke="black" cx="1032.05" cy="-90" rx="74.187" ry="18"/>
<text text-anchor="middle" x="1032.05" y="-86.3" font-family="Times,serif" font-size="14.00">Three Blind Mice</text>
</g>
<!-- FO&#45;&gt;TBMI -->
<g id="edge18" class="edge"><title>FO&#45;&gt;TBMI</title>
<path fill="none" stroke="black" d="M1181.22,-150.735C1176.25,-148.466 1170.99,-146.11 1166.05,-144 1137.69,-131.888 1105.58,-119.154 1079.9,-109.203"/>
<polygon fill="black" stroke="black" points="1080.98,-105.87 1070.39,-105.533 1078.46,-112.4 1080.98,-105.87"/>
</g>
<!-- MITA -->
<g id="node20" class="node"><title>MITA</title>
<ellipse fill="none" stroke="black" cx="1451.05" cy="-90" rx="47.3916" ry="18"/>
<text text-anchor="middle" x="1451.05" y="-86.3" font-family="Times,serif" font-size="14.00">Miss Taro</text>
</g>
<!-- FO&#45;&gt;MITA -->
<g id="edge19" class="edge"><title>FO&#45;&gt;MITA</title>
<path fill="none" stroke="black" d="M1224.05,-150.159C1228.89,-147.92 1234.08,-145.722 1239.05,-144 1306.27,-120.674 1326.3,-126.345 1395.05,-108 1398.59,-107.054 1402.25,-106.036 1405.92,-104.986"/>
<polygon fill="black" stroke="black" points="1406.98,-108.322 1415.6,-102.157 1405.02,-101.604 1406.98,-108.322"/>
</g>
<!-- ASMA -->
<g id="node21" class="node"><title>ASMA</title>
<ellipse fill="none" stroke="black" cx="1099.05" cy="-162" rx="58.4896" ry="18"/>
<text text-anchor="middle" x="1099.05" y="-158.3" font-family="Times,serif" font-size="14.00">Aston Martin</text>
</g>
<!-- VE&#45;&gt;ASMA -->
<g id="edge20" class="edge"><title>VE&#45;&gt;ASMA</title>
<path fill="none" stroke="black" d="M1099.05,-215.697C1099.05,-207.983 1099.05,-198.712 1099.05,-190.112"/>
<polygon fill="black" stroke="black" points="1102.55,-190.104 1099.05,-180.104 1095.55,-190.104 1102.55,-190.104"/>
</g>
<!-- DRAG -->
<g id="node22" class="node"><title>DRAG</title>
<ellipse fill="none" stroke="black" cx="872.046" cy="-18" rx="53.0913" ry="18"/>
<text text-anchor="middle" x="872.046" y="-14.3" font-family="Times,serif" font-size="14.00">The Dragon</text>
</g>
<!-- VE&#45;&gt;DRAG -->
<g id="edge21" class="edge"><title>VE&#45;&gt;DRAG</title>
<path fill="none" stroke="black" d="M1059.21,-228.441C1020.25,-222.442 960.583,-209.026 917.046,-180 882.856,-157.206 872.713,-146.752 859.046,-108 851.892,-87.7168 856.199,-63.4964 861.706,-45.4469"/>
<polygon fill="black" stroke="black" points="865.058,-46.458 864.915,-35.8642 858.42,-44.2347 865.058,-46.458"/>
</g>
<!-- WO&#45;&gt;HORY -->
<g id="edge24" class="edge"><title>WO&#45;&gt;HORY</title>
<path fill="none" stroke="black" d="M1266.59,-146.834C1251.55,-136.901 1231.18,-123.447 1214.2,-112.234"/>
<polygon fill="black" stroke="black" points="1215.95,-109.196 1205.68,-106.606 1212.09,-115.037 1215.95,-109.196"/>
</g>
<!-- WO&#45;&gt;MITA -->
<g id="edge23" class="edge"><title>WO&#45;&gt;MITA</title>
<path fill="none" stroke="black" d="M1316.07,-148.967C1342.43,-137.644 1382.17,-120.58 1411.7,-107.895"/>
<polygon fill="black" stroke="black" points="1413.1,-111.105 1420.91,-103.943 1410.34,-104.673 1413.1,-111.105"/>
</g>
<!-- SYTR -->
<g id="node23" class="node"><title>SYTR</title>
<ellipse fill="none" stroke="black" cx="1790.05" cy="-90" rx="60.3893" ry="18"/>
<text text-anchor="middle" x="1790.05" y="-86.3" font-family="Times,serif" font-size="14.00">Sylvia Trench</text>
</g>
<!-- WO&#45;&gt;SYTR -->
<g id="edge25" class="edge"><title>WO&#45;&gt;SYTR</title>
<path fill="none" stroke="black" d="M1316.9,-149.488C1323.13,-147.368 1329.74,-145.389 1336.05,-144 1503.44,-107.106 1550.98,-136.301 1720.05,-108 1725.44,-107.097 1731.04,-106.006 1736.61,-104.817"/>
<polygon fill="black" stroke="black" points="1737.56,-108.19 1746.56,-102.593 1736.04,-101.359 1737.56,-108.19"/>
</g>
<!-- FRPH -->
<g id="node24" class="node"><title>FRPH</title>
<ellipse fill="none" stroke="black" cx="1614.05" cy="-90" rx="97.4827" ry="18"/>
<text text-anchor="middle" x="1614.05" y="-86.3" font-family="Times,serif" font-size="14.00">Freelancer Photographer</text>
</g>
<!-- WO&#45;&gt;FRPH -->
<g id="edge26" class="edge"><title>WO&#45;&gt;FRPH</title>
<path fill="none" stroke="black" d="M1317.53,-149.767C1323.6,-147.678 1329.99,-145.64 1336.05,-144 1372.77,-134.057 1466.82,-116.745 1535.38,-104.621"/>
<polygon fill="black" stroke="black" points="1536.06,-108.055 1545.3,-102.871 1534.85,-101.161 1536.06,-108.055"/>
</g>
<!-- MI_6 -->
<g id="node25" class="node"><title>MI_6</title>
<ellipse fill="none" stroke="black" cx="568.046" cy="-162" rx="29.4969" ry="18"/>
<text text-anchor="middle" x="568.046" y="-158.3" font-family="Times,serif" font-size="14.00">MI&#45;6</text>
</g>
<!-- OR&#45;&gt;MI_6 -->
<g id="edge27" class="edge"><title>OR&#45;&gt;MI_6</title>
<path fill="none" stroke="black" d="M703.252,-219.003C673.568,-206.708 630.636,-188.925 601.157,-176.715"/>
<polygon fill="black" stroke="black" points="602.293,-173.397 591.715,-172.804 599.614,-179.864 602.293,-173.397"/>
</g>
<!-- UNEX -->
<g id="node26" class="node"><title>UNEX</title>
<ellipse fill="none" stroke="black" cx="737.046" cy="-90" rx="74.9875" ry="18"/>
<text text-anchor="middle" x="737.046" y="-86.3" font-family="Times,serif" font-size="14.00">Universal Exports</text>
</g>
<!-- OR&#45;&gt;UNEX -->
<g id="edge28" class="edge"><title>OR&#45;&gt;UNEX</title>
<path fill="none" stroke="black" d="M737.046,-215.871C737.046,-191.67 737.046,-147.211 737.046,-118.393"/>
<polygon fill="black" stroke="black" points="740.546,-118.189 737.046,-108.189 733.546,-118.189 740.546,-118.189"/>
</g>
<!-- CIA -->
<g id="node27" class="node"><title>CIA</title>
<ellipse fill="none" stroke="black" cx="669.046" cy="-162" rx="27" ry="18"/>
<text text-anchor="middle" x="669.046" y="-158.3" font-family="Times,serif" font-size="14.00">CIA</text>
</g>
<!-- OR&#45;&gt;CIA -->
<g id="edge29" class="edge"><title>OR&#45;&gt;CIA</title>
<path fill="none" stroke="black" d="M720.931,-216.411C711.792,-207.004 700.243,-195.115 690.363,-184.944"/>
<polygon fill="black" stroke="black" points="692.678,-182.305 683.2,-177.57 687.657,-187.182 692.678,-182.305"/>
</g>
<!-- SPCT -->
<g id="node28" class="node"><title>SPCT</title>
<ellipse fill="none" stroke="black" cx="974.046" cy="-162" rx="48.1917" ry="18"/>
<text text-anchor="middle" x="974.046" y="-158.3" font-family="Times,serif" font-size="14.00">SPECTRE</text>
</g>
<!-- OR&#45;&gt;SPCT -->
<g id="edge30" class="edge"><title>OR&#45;&gt;SPCT</title>
<path fill="none" stroke="black" d="M778.057,-220.887C819.724,-208.58 884.152,-189.551 927.657,-176.701"/>
<polygon fill="black" stroke="black" points="928.823,-180.006 937.422,-173.817 926.84,-173.293 928.823,-180.006"/>
</g>
<!-- KGJA -->
<g id="node29" class="node"><title>KGJA</title>
<ellipse fill="none" stroke="black" cx="1422.05" cy="-162" rx="76.8869" ry="18"/>
<text text-anchor="middle" x="1422.05" y="-158.3" font-family="Times,serif" font-size="14.00">Kingston, Jamaica</text>
</g>
<!-- LO&#45;&gt;KGJA -->
<g id="edge41" class="edge"><title>LO&#45;&gt;KGJA</title>
<path fill="none" stroke="black" d="M1486.63,-217.465C1475.66,-208.213 1461.53,-196.301 1449.29,-185.978"/>
<polygon fill="black" stroke="black" points="1451.47,-183.239 1441.57,-179.467 1446.96,-188.59 1451.47,-183.239"/>
</g>
<!-- LDEN -->
<g id="node30" class="node"><title>LDEN</title>
<ellipse fill="none" stroke="black" cx="1589.05" cy="-162" rx="72.2875" ry="18"/>
<text text-anchor="middle" x="1589.05" y="-158.3" font-family="Times,serif" font-size="14.00">London, England</text>
</g>
<!-- LO&#45;&gt;LDEN -->
<g id="edge42" class="edge"><title>LO&#45;&gt;LDEN</title>
<path fill="none" stroke="black" d="M1523.69,-217.465C1534.79,-208.213 1549.08,-196.301 1561.47,-185.978"/>
<polygon fill="black" stroke="black" points="1563.84,-188.558 1569.28,-179.467 1559.36,-183.18 1563.84,-188.558"/>
</g>
<!-- CKIS -->
<g id="node31" class="node"><title>CKIS</title>
<ellipse fill="none" stroke="black" cx="1748.05" cy="-162" rx="68.7879" ry="18"/>
<text text-anchor="middle" x="1748.05" y="-158.3" font-family="Times,serif" font-size="14.00">Crab Key Island</text>
</g>
<!-- LO&#45;&gt;CKIS -->
<g id="edge43" class="edge"><title>LO&#45;&gt;CKIS</title>
<path fill="none" stroke="black" d="M1540.64,-222.746C1581.01,-211.118 1647.28,-192.027 1694.03,-178.56"/>
<polygon fill="black" stroke="black" points="1695.05,-181.908 1703.69,-175.777 1693.11,-175.182 1695.05,-181.908"/>
</g>
<!-- BERT -->
<g id="node32" class="node"><title>BERT</title>
<ellipse fill="none" stroke="black" cx="1997.05" cy="-162" rx="36.2938" ry="18"/>
<text text-anchor="middle" x="1997.05" y="-158.3" font-family="Times,serif" font-size="14.00">Beretta</text>
</g>
<!-- WE&#45;&gt;BERT -->
<g id="edge44" class="edge"><title>WE&#45;&gt;BERT</title>
<path fill="none" stroke="black" d="M1911.69,-218.326C1927.8,-207.879 1949.63,-193.735 1967.17,-182.364"/>
<polygon fill="black" stroke="black" points="1969.41,-185.08 1975.9,-176.704 1965.61,-179.206 1969.41,-185.08"/>
</g>
<!-- WPPK -->
<g id="node33" class="node"><title>WPPK</title>
<ellipse fill="none" stroke="black" cx="1889.05" cy="-162" rx="53.8905" ry="18"/>
<text text-anchor="middle" x="1889.05" y="-158.3" font-family="Times,serif" font-size="14.00">Walter PPK</text>
</g>
<!-- WE&#45;&gt;WPPK -->
<g id="edge45" class="edge"><title>WE&#45;&gt;WPPK</title>
<path fill="none" stroke="black" d="M1889.05,-215.697C1889.05,-207.983 1889.05,-198.712 1889.05,-190.112"/>
<polygon fill="black" stroke="black" points="1892.55,-190.104 1889.05,-180.104 1885.55,-190.104 1892.55,-190.104"/>
</g>
<!-- GGCT -->
<g id="node34" class="node"><title>GGCT</title>
<ellipse fill="none" stroke="black" cx="2111.05" cy="-162" rx="59.2899" ry="18"/>
<text text-anchor="middle" x="2111.05" y="-158.3" font-family="Times,serif" font-size="14.00">Geiger Gount</text>
</g>
<!-- GD&#45;&gt;GGCT -->
<g id="edge46" class="edge"><title>GD&#45;&gt;GGCT</title>
<path fill="none" stroke="black" d="M2064.96,-216.765C2072.43,-208.056 2081.78,-197.147 2090.1,-187.435"/>
<polygon fill="black" stroke="black" points="2092.94,-189.504 2096.79,-179.633 2087.62,-184.948 2092.94,-189.504"/>
</g>
<!-- DRNO&#45;&gt;DRAG -->
<g id="edge22" class="edge"><title>DRNO&#45;&gt;DRAG</title>
<path fill="none" stroke="black" d="M896.299,-72.055C892.659,-64.0915 888.233,-54.4107 884.164,-45.5097"/>
<polygon fill="black" stroke="black" points="887.284,-43.9149 879.943,-36.2753 880.917,-46.8252 887.284,-43.9149"/>
</g>
<!-- MI_6&#45;&gt;MOPE -->
<g id="edge34" class="edge"><title>MI_6&#45;&gt;MOPE</title>
<path fill="none" stroke="black" d="M540.97,-154.999C497.776,-145.379 410.638,-125.776 337.046,-108 332.474,-106.896 327.733,-105.731 322.98,-104.551"/>
<polygon fill="black" stroke="black" points="323.81,-101.151 313.259,-102.12 322.111,-107.942 323.81,-101.151"/>
</g>
<!-- MI_6&#45;&gt;MMMM -->
<g id="edge33" class="edge"><title>MI_6&#45;&gt;MMMM</title>
<path fill="none" stroke="black" d="M542.094,-153.394C510.331,-143.846 455.091,-126.469 409.046,-108 407.217,-107.267 405.35,-106.486 403.475,-105.677"/>
<polygon fill="black" stroke="black" points="404.735,-102.407 394.18,-101.494 401.863,-108.79 404.735,-102.407"/>
</g>
<!-- MI_6&#45;&gt;STRG -->
<g id="edge35" class="edge"><title>MI_6&#45;&gt;STRG</title>
<path fill="none" stroke="black" d="M549.613,-147.834C535.765,-137.942 516.495,-124.178 500.387,-112.672"/>
<polygon fill="black" stroke="black" points="501.989,-109.516 491.818,-106.552 497.921,-115.212 501.989,-109.516"/>
</g>
<!-- MI_6&#45;&gt;UNEX -->
<g id="edge31" class="edge"><title>MI_6&#45;&gt;UNEX</title>
<path fill="none" stroke="black" d="M589.735,-149.908C614.392,-138.926 655.131,-121.928 687.583,-109.008"/>
<polygon fill="black" stroke="black" points="688.916,-112.245 696.927,-105.311 686.341,-105.735 688.916,-112.245"/>
</g>
<!-- UNEX&#45;&gt;MI_6 -->
<g id="edge32" class="edge"><title>UNEX&#45;&gt;MI_6</title>
<path fill="none" stroke="black" d="M705.628,-106.375C676.361,-119.131 633.011,-137.027 602.74,-148.811"/>
<polygon fill="black" stroke="black" points="601.089,-145.696 593.015,-152.556 603.605,-152.228 601.089,-145.696"/>
</g>
<!-- CIA&#45;&gt;FELE -->
<g id="edge36" class="edge"><title>CIA&#45;&gt;FELE</title>
<path fill="none" stroke="black" d="M653.463,-146.834C643.082,-137.396 629.204,-124.78 617.267,-113.929"/>
<polygon fill="black" stroke="black" points="619.513,-111.24 609.759,-107.103 614.804,-116.42 619.513,-111.24"/>
</g>
<!-- SPCT&#45;&gt;DRNO -->
<g id="edge37" class="edge"><title>SPCT&#45;&gt;DRNO</title>
<path fill="none" stroke="black" d="M957.81,-144.765C948.67,-135.624 937.105,-124.06 927.046,-114"/>
<polygon fill="black" stroke="black" points="929.257,-111.262 919.711,-106.666 924.308,-116.212 929.257,-111.262"/>
</g>
<!-- SPCT&#45;&gt;PROF -->
<g id="edge40" class="edge"><title>SPCT&#45;&gt;PROF</title>
<path fill="none" stroke="black" d="M1009.76,-149.799C1017.09,-147.707 1024.78,-145.66 1032.05,-144 1127.35,-122.211 1153.17,-127.097 1249.05,-108 1254.39,-106.936 1259.94,-105.765 1265.48,-104.55"/>
<polygon fill="black" stroke="black" points="1266.41,-107.928 1275.41,-102.331 1264.89,-101.097 1266.41,-107.928"/>
</g>
<!-- SPCT&#45;&gt;TBMI -->
<g id="edge38" class="edge"><title>SPCT&#45;&gt;TBMI</title>
<path fill="none" stroke="black" d="M987.791,-144.411C994.838,-135.906 1003.57,-125.372 1011.4,-115.914"/>
<polygon fill="black" stroke="black" points="1014.31,-117.89 1018,-107.956 1008.92,-113.423 1014.31,-117.89"/>
</g>
<!-- SPCT&#45;&gt;MITA -->
<g id="edge39" class="edge"><title>SPCT&#45;&gt;MITA</title>
<path fill="none" stroke="black" d="M1009.06,-149.599C1016.58,-147.472 1024.53,-145.462 1032.05,-144 1191.19,-113.065 1236.05,-139.699 1395.05,-108 1398.91,-107.229 1402.9,-106.3 1406.87,-105.28"/>
<polygon fill="black" stroke="black" points="1407.95,-108.615 1416.66,-102.593 1406.09,-101.865 1407.95,-108.615"/>
</g>
</g>
</svg>
