<?xml version="1.0" encoding="UTF-8" standalone="no"?>
<!DOCTYPE svg PUBLIC "-//W3C//DTD SVG 1.1//EN"
 "http://www.w3.org/Graphics/SVG/1.1/DTD/svg11.dtd">
<!-- Generated by graphviz version 2.38.0 (20140413.2041)
 -->
<!-- Title: jamesbond Pages: 1 -->
<svg width="734pt" height="1409pt"
 viewBox="0.00 0.00 734.00 1409.00" xmlns="http://www.w3.org/2000/svg" xmlns:xlink="http://www.w3.org/1999/xlink">
<g id="graph0" class="graph" transform="scale(1 1) rotate(0) translate(4 1405)">
<title>jamesbond</title>
<polygon fill="white" stroke="none" points="-4,4 -4,-1405 730,-1405 730,4 -4,4"/>
<g id="clust1" class="cluster"><title>cluster_0</title>
<polygon fill="none" stroke="black" points="8,-80 8,-155 536,-155 536,-80 8,-80"/>
<text text-anchor="middle" x="272" y="-139.8" font-family="Times,serif" font-size="14.00">Apocryphal</text>
</g>
<g id="clust2" class="cluster"><title>cluster_1</title>
<polygon fill="none" stroke="black" points="110,-991 110,-1357 409,-1357 409,-991 110,-991"/>
<text text-anchor="middle" x="259.5" y="-1341.8" font-family="Times,serif" font-size="14.00">Sean Connery</text>
</g>
<g id="clust3" class="cluster"><title>cluster_2</title>
<polygon fill="none" stroke="black" points="102,-908 102,-983 348,-983 348,-908 102,-908"/>
<text text-anchor="middle" x="225" y="-967.8" font-family="Times,serif" font-size="14.00">George Lazenby</text>
</g>
<g id="clust4" class="cluster"><title>cluster_3</title>
<polygon fill="none" stroke="black" points="435,-764 435,-1282 671,-1282 671,-764 435,-764"/>
<text text-anchor="middle" x="553" y="-1266.8" font-family="Times,serif" font-size="14.00">Roger Moore</text>
</g>
<g id="clust5" class="cluster"><title>cluster_4</title>
<polygon fill="none" stroke="black" points="479,-609 479,-756 663,-756 663,-609 479,-609"/>
<text text-anchor="middle" x="571" y="-740.8" font-family="Times,serif" font-size="14.00">Timothy Dalton</text>
</g>
<g id="clust6" class="cluster"><title>cluster_5</title>
<polygon fill="none" stroke="black" points="489,-310 489,-601 699,-601 699,-310 489,-310"/>
<text text-anchor="middle" x="594" y="-585.8" font-family="Times,serif" font-size="14.00">Pierce Brosnan</text>
</g>
<g id="clust7" class="cluster"><title>cluster_6</title>
<polygon fill="none" stroke="black" points="544,-8 544,-302 718,-302 718,-8 544,-8"/>
<text text-anchor="middle" x="631" y="-286.8" font-family="Times,serif" font-size="14.00">Daniel Craig</text>
</g>
<!-- CR1 -->
<g id="node1" class="node"><title>CR1</title>
<path fill="red" stroke="red" d="M135.5,-124C135.5,-124 28.5,-124 28.5,-124 22.5,-124 16.5,-118 16.5,-112 16.5,-112 16.5,-100 16.5,-100 16.5,-94 22.5,-88 28.5,-88 28.5,-88 135.5,-88 135.5,-88 141.5,-88 147.5,-94 147.5,-100 147.5,-100 147.5,-112 147.5,-112 147.5,-118 141.5,-124 135.5,-124"/>
<text text-anchor="middle" x="82" y="-102.3" font-family="Times,serif" font-size="14.00">Casino Royale, 1967</text>
</g>
<!-- SC7 -->
<g id="node2" class="node"><title>SC7</title>
<path fill="red" stroke="red" d="M336,-124C336,-124 178,-124 178,-124 172,-124 166,-118 166,-112 166,-112 166,-100 166,-100 166,-94 172,-88 178,-88 178,-88 336,-88 336,-88 342,-88 348,-94 348,-100 348,-100 348,-112 348,-112 348,-118 342,-124 336,-124"/>
<text text-anchor="middle" x="257" y="-102.3" font-family="Times,serif" font-size="14.00">Never Say Never Again, 1983</text>
</g>
<!-- DC3 -->
<g id="node3" class="node"><title>DC3</title>
<path fill="red" stroke="red" d="M515.5,-124C515.5,-124 378.5,-124 378.5,-124 372.5,-124 366.5,-118 366.5,-112 366.5,-112 366.5,-100 366.5,-100 366.5,-94 372.5,-88 378.5,-88 378.5,-88 515.5,-88 515.5,-88 521.5,-88 527.5,-94 527.5,-100 527.5,-100 527.5,-112 527.5,-112 527.5,-118 521.5,-124 515.5,-124"/>
<text text-anchor="middle" x="447" y="-102.3" font-family="Times,serif" font-size="14.00">Happy and Glorious, 2012</text>
</g>
<!-- SC1 -->
<g id="node4" class="node"><title>SC1</title>
<path fill="brown" stroke="brown" d="M194.5,-1326C194.5,-1326 129.5,-1326 129.5,-1326 123.5,-1326 117.5,-1320 117.5,-1314 117.5,-1314 117.5,-1302 117.5,-1302 117.5,-1296 123.5,-1290 129.5,-1290 129.5,-1290 194.5,-1290 194.5,-1290 200.5,-1290 206.5,-1296 206.5,-1302 206.5,-1302 206.5,-1314 206.5,-1314 206.5,-1320 200.5,-1326 194.5,-1326"/>
<text text-anchor="middle" x="162" y="-1304.3" font-family="Times,serif" font-size="14.00" fill="white">Dr. No, 1962</text>
</g>
<!-- SC2 -->
<g id="node5" class="node"><title>SC2</title>
<path fill="brown" stroke="brown" d="M290,-1251C290,-1251 130,-1251 130,-1251 124,-1251 118,-1245 118,-1239 118,-1239 118,-1227 118,-1227 118,-1221 124,-1215 130,-1215 130,-1215 290,-1215 290,-1215 296,-1215 302,-1221 302,-1227 302,-1227 302,-1239 302,-1239 302,-1245 296,-1251 290,-1251"/>
<text text-anchor="middle" x="210" y="-1229.3" font-family="Times,serif" font-size="14.00" fill="white">From Russia With Love, 1963</text>
</g>
<!-- SC1&#45;&gt;SC2 -->
<g id="edge1" class="edge"><title>SC1&#45;&gt;SC2</title>
<path fill="none" stroke="black" d="M173.375,-1289.7C179.293,-1280.7 186.643,-1269.52 193.202,-1259.55"/>
<polygon fill="black" stroke="black" points="196.137,-1261.45 198.706,-1251.18 190.288,-1257.61 196.137,-1261.45"/>
</g>
<!-- SC3 -->
<g id="node6" class="node"><title>SC3</title>
<path fill="brown" stroke="brown" d="M256,-1179C256,-1179 170,-1179 170,-1179 164,-1179 158,-1173 158,-1167 158,-1167 158,-1155 158,-1155 158,-1149 164,-1143 170,-1143 170,-1143 256,-1143 256,-1143 262,-1143 268,-1149 268,-1155 268,-1155 268,-1167 268,-1167 268,-1173 262,-1179 256,-1179"/>
<text text-anchor="middle" x="213" y="-1157.3" font-family="Times,serif" font-size="14.00" fill="white">Goldfinger, 1964</text>
</g>
<!-- SC2&#45;&gt;SC3 -->
<g id="edge2" class="edge"><title>SC2&#45;&gt;SC3</title>
<path fill="none" stroke="black" d="M210.742,-1214.7C211.072,-1206.98 211.469,-1197.71 211.838,-1189.11"/>
<polygon fill="black" stroke="black" points="215.335,-1189.25 212.267,-1179.1 208.342,-1188.95 215.335,-1189.25"/>
</g>
<!-- SC4 -->
<g id="node7" class="node"><title>SC4</title>
<path fill="brown" stroke="brown" d="M260.5,-1107C260.5,-1107 167.5,-1107 167.5,-1107 161.5,-1107 155.5,-1101 155.5,-1095 155.5,-1095 155.5,-1083 155.5,-1083 155.5,-1077 161.5,-1071 167.5,-1071 167.5,-1071 260.5,-1071 260.5,-1071 266.5,-1071 272.5,-1077 272.5,-1083 272.5,-1083 272.5,-1095 272.5,-1095 272.5,-1101 266.5,-1107 260.5,-1107"/>
<text text-anchor="middle" x="214" y="-1085.3" font-family="Times,serif" font-size="14.00" fill="white">Thunderball, 1965</text>
</g>
<!-- SC3&#45;&gt;SC4 -->
<g id="edge3" class="edge"><title>SC3&#45;&gt;SC4</title>
<path fill="none" stroke="black" d="M213.247,-1142.7C213.357,-1134.98 213.49,-1125.71 213.613,-1117.11"/>
<polygon fill="black" stroke="black" points="217.112,-1117.15 213.756,-1107.1 210.113,-1117.05 217.112,-1117.15"/>
</g>
<!-- SC5 -->
<g id="node8" class="node"><title>SC5</title>
<path fill="brown" stroke="brown" d="M288.5,-1035C288.5,-1035 141.5,-1035 141.5,-1035 135.5,-1035 129.5,-1029 129.5,-1023 129.5,-1023 129.5,-1011 129.5,-1011 129.5,-1005 135.5,-999 141.5,-999 141.5,-999 288.5,-999 288.5,-999 294.5,-999 300.5,-1005 300.5,-1011 300.5,-1011 300.5,-1023 300.5,-1023 300.5,-1029 294.5,-1035 288.5,-1035"/>
<text text-anchor="middle" x="215" y="-1013.3" font-family="Times,serif" font-size="14.00" fill="white">You Only Live Twice, 1967</text>
</g>
<!-- SC4&#45;&gt;SC5 -->
<g id="edge4" class="edge"><title>SC4&#45;&gt;SC5</title>
<path fill="none" stroke="black" d="M214.247,-1070.7C214.357,-1062.98 214.49,-1053.71 214.613,-1045.11"/>
<polygon fill="black" stroke="black" points="218.112,-1045.15 214.756,-1035.1 211.113,-1045.05 218.112,-1045.15"/>
</g>
<!-- GL1 -->
<g id="node10" class="node"><title>GL1</title>
<path fill="black" stroke="black" d="M327.5,-952C327.5,-952 122.5,-952 122.5,-952 116.5,-952 110.5,-946 110.5,-940 110.5,-940 110.5,-928 110.5,-928 110.5,-922 116.5,-916 122.5,-916 122.5,-916 327.5,-916 327.5,-916 333.5,-916 339.5,-922 339.5,-928 339.5,-928 339.5,-940 339.5,-940 339.5,-946 333.5,-952 327.5,-952"/>
<text text-anchor="middle" x="225" y="-930.3" font-family="Times,serif" font-size="14.00" fill="white">On Her Majesty&#39;s Secret Service, 1969</text>
</g>
<!-- SC5&#45;&gt;GL1 -->
<g id="edge19" class="edge"><title>SC5&#45;&gt;GL1</title>
<path fill="none" stroke="black" d="M217.121,-998.822C218.433,-988.19 220.147,-974.306 221.642,-962.204"/>
<polygon fill="black" stroke="black" points="225.131,-962.507 222.882,-952.153 218.183,-961.649 225.131,-962.507"/>
</g>
<!-- SC6 -->
<g id="node9" class="node"><title>SC6</title>
<path fill="brown" stroke="brown" d="M389.5,-1326C389.5,-1326 236.5,-1326 236.5,-1326 230.5,-1326 224.5,-1320 224.5,-1314 224.5,-1314 224.5,-1302 224.5,-1302 224.5,-1296 230.5,-1290 236.5,-1290 236.5,-1290 389.5,-1290 389.5,-1290 395.5,-1290 401.5,-1296 401.5,-1302 401.5,-1302 401.5,-1314 401.5,-1314 401.5,-1320 395.5,-1326 389.5,-1326"/>
<text text-anchor="middle" x="313" y="-1304.3" font-family="Times,serif" font-size="14.00" fill="white">Diamonds Are Forever, 1971</text>
</g>
<!-- SC6&#45;&gt;SC7 -->
<g id="edge21" class="edge"><title>SC6&#45;&gt;SC7</title>
<path fill="none" stroke="black" d="M331.528,-1289.88C333.58,-1287.39 335.476,-1284.73 337,-1282 363.838,-1233.9 368,-1217.08 368,-1162 368,-1162 368,-1162 368,-252 368,-200.416 323.159,-155.828 290.478,-130.182"/>
<polygon fill="black" stroke="black" points="292.541,-127.354 282.466,-124.077 288.299,-132.922 292.541,-127.354"/>
</g>
<!-- RM1 -->
<g id="node11" class="node"><title>RM1</title>
<path fill="cyan" stroke="cyan" d="M594,-1251C594,-1251 474,-1251 474,-1251 468,-1251 462,-1245 462,-1239 462,-1239 462,-1227 462,-1227 462,-1221 468,-1215 474,-1215 474,-1215 594,-1215 594,-1215 600,-1215 606,-1221 606,-1227 606,-1227 606,-1239 606,-1239 606,-1245 600,-1251 594,-1251"/>
<text text-anchor="middle" x="534" y="-1229.3" font-family="Times,serif" font-size="14.00" fill="brown">Live and Let Die, 1973</text>
</g>
<!-- SC6&#45;&gt;RM1 -->
<g id="edge22" class="edge"><title>SC6&#45;&gt;RM1</title>
<path fill="none" stroke="black" d="M385.961,-1289.96C395.117,-1287.47 404.312,-1284.8 413,-1282 437.268,-1274.19 463.644,-1263.94 485.557,-1254.92"/>
<polygon fill="black" stroke="black" points="487.08,-1258.08 494.971,-1251.01 484.394,-1251.62 487.08,-1258.08"/>
</g>
<!-- GL1&#45;&gt;SC6 -->
<g id="edge20" class="edge"><title>GL1&#45;&gt;SC6</title>
<path fill="none" stroke="black" d="M263.049,-952.091C279.549,-961.349 297.652,-974.342 309,-991 333.833,-1027.46 330,-1043.89 330,-1088 330,-1162 330,-1162 330,-1162 330,-1203.13 323.17,-1250.38 318.168,-1279.46"/>
<polygon fill="black" stroke="black" points="314.658,-1279.21 316.359,-1289.67 321.55,-1280.43 314.658,-1279.21"/>
</g>
<!-- RM2 -->
<g id="node12" class="node"><title>RM2</title>
<path fill="cyan" stroke="cyan" d="M651,-1179C651,-1179 455,-1179 455,-1179 449,-1179 443,-1173 443,-1167 443,-1167 443,-1155 443,-1155 443,-1149 449,-1143 455,-1143 455,-1143 651,-1143 651,-1143 657,-1143 663,-1149 663,-1155 663,-1155 663,-1167 663,-1167 663,-1173 657,-1179 651,-1179"/>
<text text-anchor="middle" x="553" y="-1157.3" font-family="Times,serif" font-size="14.00" fill="brown">The Man with the Golden Gun, 1974</text>
</g>
<!-- RM1&#45;&gt;RM2 -->
<g id="edge5" class="edge"><title>RM1&#45;&gt;RM2</title>
<path fill="none" stroke="black" d="M538.697,-1214.7C540.813,-1206.9 543.362,-1197.51 545.718,-1188.83"/>
<polygon fill="black" stroke="black" points="549.116,-1189.67 548.357,-1179.1 542.36,-1187.84 549.116,-1189.67"/>
</g>
<!-- RM3 -->
<g id="node13" class="node"><title>RM3</title>
<path fill="cyan" stroke="cyan" d="M643,-1107C643,-1107 479,-1107 479,-1107 473,-1107 467,-1101 467,-1095 467,-1095 467,-1083 467,-1083 467,-1077 473,-1071 479,-1071 479,-1071 643,-1071 643,-1071 649,-1071 655,-1077 655,-1083 655,-1083 655,-1095 655,-1095 655,-1101 649,-1107 643,-1107"/>
<text text-anchor="middle" x="561" y="-1085.3" font-family="Times,serif" font-size="14.00" fill="brown">The Spy Who Loved Me, 1977</text>
</g>
<!-- RM2&#45;&gt;RM3 -->
<g id="edge6" class="edge"><title>RM2&#45;&gt;RM3</title>
<path fill="none" stroke="black" d="M554.978,-1142.7C555.859,-1134.98 556.919,-1125.71 557.901,-1117.11"/>
<polygon fill="black" stroke="black" points="561.387,-1117.44 559.045,-1107.1 554.432,-1116.64 561.387,-1117.44"/>
</g>
<!-- RM4 -->
<g id="node14" class="node"><title>RM4</title>
<path fill="cyan" stroke="cyan" d="M608,-1035C608,-1035 520,-1035 520,-1035 514,-1035 508,-1029 508,-1023 508,-1023 508,-1011 508,-1011 508,-1005 514,-999 520,-999 520,-999 608,-999 608,-999 614,-999 620,-1005 620,-1011 620,-1011 620,-1023 620,-1023 620,-1029 614,-1035 608,-1035"/>
<text text-anchor="middle" x="564" y="-1013.3" font-family="Times,serif" font-size="14.00" fill="brown">Moonraker, 1979</text>
</g>
<!-- RM3&#45;&gt;RM4 -->
<g id="edge7" class="edge"><title>RM3&#45;&gt;RM4</title>
<path fill="none" stroke="black" d="M561.742,-1070.7C562.072,-1062.98 562.469,-1053.71 562.838,-1045.11"/>
<polygon fill="black" stroke="black" points="566.335,-1045.25 563.267,-1035.1 559.342,-1044.95 566.335,-1045.25"/>
</g>
<!-- RM5 -->
<g id="node15" class="node"><title>RM5</title>
<path fill="cyan" stroke="cyan" d="M638,-952C638,-952 500,-952 500,-952 494,-952 488,-946 488,-940 488,-940 488,-928 488,-928 488,-922 494,-916 500,-916 500,-916 638,-916 638,-916 644,-916 650,-922 650,-928 650,-928 650,-940 650,-940 650,-946 644,-952 638,-952"/>
<text text-anchor="middle" x="569" y="-930.3" font-family="Times,serif" font-size="14.00" fill="brown">For Your Eyes Only, 1981</text>
</g>
<!-- RM4&#45;&gt;RM5 -->
<g id="edge8" class="edge"><title>RM4&#45;&gt;RM5</title>
<path fill="none" stroke="black" d="M565.06,-998.822C565.717,-988.19 566.574,-974.306 567.321,-962.204"/>
<polygon fill="black" stroke="black" points="570.818,-962.35 567.941,-952.153 563.832,-961.919 570.818,-962.35"/>
</g>
<!-- RM6 -->
<g id="node16" class="node"><title>RM6</title>
<path fill="cyan" stroke="cyan" d="M612,-880C612,-880 528,-880 528,-880 522,-880 516,-874 516,-868 516,-868 516,-856 516,-856 516,-850 522,-844 528,-844 528,-844 612,-844 612,-844 618,-844 624,-850 624,-856 624,-856 624,-868 624,-868 624,-874 618,-880 612,-880"/>
<text text-anchor="middle" x="570" y="-858.3" font-family="Times,serif" font-size="14.00" fill="brown">Octopussy, 1983</text>
</g>
<!-- RM5&#45;&gt;RM6 -->
<g id="edge9" class="edge"><title>RM5&#45;&gt;RM6</title>
<path fill="none" stroke="black" d="M569.247,-915.697C569.357,-907.983 569.49,-898.712 569.613,-890.112"/>
<polygon fill="black" stroke="black" points="573.112,-890.153 569.756,-880.104 566.113,-890.053 573.112,-890.153"/>
</g>
<!-- RM7 -->
<g id="node17" class="node"><title>RM7</title>
<path fill="cyan" stroke="cyan" d="M630.5,-808C630.5,-808 511.5,-808 511.5,-808 505.5,-808 499.5,-802 499.5,-796 499.5,-796 499.5,-784 499.5,-784 499.5,-778 505.5,-772 511.5,-772 511.5,-772 630.5,-772 630.5,-772 636.5,-772 642.5,-778 642.5,-784 642.5,-784 642.5,-796 642.5,-796 642.5,-802 636.5,-808 630.5,-808"/>
<text text-anchor="middle" x="571" y="-786.3" font-family="Times,serif" font-size="14.00" fill="brown">A View to a Kill, 1985</text>
</g>
<!-- RM6&#45;&gt;RM7 -->
<g id="edge10" class="edge"><title>RM6&#45;&gt;RM7</title>
<path fill="none" stroke="black" d="M570.247,-843.697C570.357,-835.983 570.49,-826.712 570.613,-818.112"/>
<polygon fill="black" stroke="black" points="574.112,-818.153 570.756,-808.104 567.113,-818.053 574.112,-818.153"/>
</g>
<!-- TD1 -->
<g id="node18" class="node"><title>TD1</title>
<path fill="blue" stroke="blue" d="M643,-725C643,-725 499,-725 499,-725 493,-725 487,-719 487,-713 487,-713 487,-701 487,-701 487,-695 493,-689 499,-689 499,-689 643,-689 643,-689 649,-689 655,-695 655,-701 655,-701 655,-713 655,-713 655,-719 649,-725 643,-725"/>
<text text-anchor="middle" x="571" y="-703.3" font-family="Times,serif" font-size="14.00">The Living Daylights, 1987</text>
</g>
<!-- RM7&#45;&gt;TD1 -->
<g id="edge23" class="edge"><title>RM7&#45;&gt;TD1</title>
<path fill="none" stroke="black" d="M571,-771.822C571,-761.19 571,-747.306 571,-735.204"/>
<polygon fill="black" stroke="black" points="574.5,-735.153 571,-725.153 567.5,-735.153 574.5,-735.153"/>
</g>
<!-- TD2 -->
<g id="node19" class="node"><title>TD2</title>
<path fill="blue" stroke="blue" d="M625.5,-653C625.5,-653 516.5,-653 516.5,-653 510.5,-653 504.5,-647 504.5,-641 504.5,-641 504.5,-629 504.5,-629 504.5,-623 510.5,-617 516.5,-617 516.5,-617 625.5,-617 625.5,-617 631.5,-617 637.5,-623 637.5,-629 637.5,-629 637.5,-641 637.5,-641 637.5,-647 631.5,-653 625.5,-653"/>
<text text-anchor="middle" x="571" y="-631.3" font-family="Times,serif" font-size="14.00">Licence to Kill, 1989</text>
</g>
<!-- TD1&#45;&gt;TD2 -->
<g id="edge11" class="edge"><title>TD1&#45;&gt;TD2</title>
<path fill="none" stroke="black" d="M571,-688.697C571,-680.983 571,-671.712 571,-663.112"/>
<polygon fill="black" stroke="black" points="574.5,-663.104 571,-653.104 567.5,-663.104 574.5,-663.104"/>
</g>
<!-- PB1 -->
<g id="node20" class="node"><title>PB1</title>
<path fill="green" stroke="green" d="M615,-570C615,-570 527,-570 527,-570 521,-570 515,-564 515,-558 515,-558 515,-546 515,-546 515,-540 521,-534 527,-534 527,-534 615,-534 615,-534 621,-534 627,-540 627,-546 627,-546 627,-558 627,-558 627,-564 621,-570 615,-570"/>
<text text-anchor="middle" x="571" y="-548.3" font-family="Times,serif" font-size="14.00" fill="red">GoldenEye, 1995</text>
</g>
<!-- TD2&#45;&gt;PB1 -->
<g id="edge24" class="edge"><title>TD2&#45;&gt;PB1</title>
<path fill="none" stroke="black" d="M571,-616.822C571,-606.19 571,-592.306 571,-580.204"/>
<polygon fill="black" stroke="black" points="574.5,-580.153 571,-570.153 567.5,-580.153 574.5,-580.153"/>
</g>
<!-- PB2 -->
<g id="node21" class="node"><title>PB2</title>
<path fill="green" stroke="green" d="M664.5,-498C664.5,-498 513.5,-498 513.5,-498 507.5,-498 501.5,-492 501.5,-486 501.5,-486 501.5,-474 501.5,-474 501.5,-468 507.5,-462 513.5,-462 513.5,-462 664.5,-462 664.5,-462 670.5,-462 676.5,-468 676.5,-474 676.5,-474 676.5,-486 676.5,-486 676.5,-492 670.5,-498 664.5,-498"/>
<text text-anchor="middle" x="589" y="-476.3" font-family="Times,serif" font-size="14.00" fill="red">Tomorrow Never Dies, 1997</text>
</g>
<!-- PB1&#45;&gt;PB2 -->
<g id="edge12" class="edge"><title>PB1&#45;&gt;PB2</title>
<path fill="none" stroke="black" d="M575.449,-533.697C577.455,-525.898 579.869,-516.509 582.101,-507.829"/>
<polygon fill="black" stroke="black" points="585.501,-508.661 584.602,-498.104 578.722,-506.918 585.501,-508.661"/>
</g>
<!-- PB3 -->
<g id="node22" class="node"><title>PB3</title>
<path fill="green" stroke="green" d="M679,-426C679,-426 509,-426 509,-426 503,-426 497,-420 497,-414 497,-414 497,-402 497,-402 497,-396 503,-390 509,-390 509,-390 679,-390 679,-390 685,-390 691,-396 691,-402 691,-402 691,-414 691,-414 691,-420 685,-426 679,-426"/>
<text text-anchor="middle" x="594" y="-404.3" font-family="Times,serif" font-size="14.00" fill="red">The World Is Not Enough, 1999</text>
</g>
<!-- PB2&#45;&gt;PB3 -->
<g id="edge13" class="edge"><title>PB2&#45;&gt;PB3</title>
<path fill="none" stroke="black" d="M590.236,-461.697C590.787,-453.983 591.449,-444.712 592.063,-436.112"/>
<polygon fill="black" stroke="black" points="595.557,-436.328 592.778,-426.104 588.575,-435.83 595.557,-436.328"/>
</g>
<!-- PB4 -->
<g id="node23" class="node"><title>PB4</title>
<path fill="green" stroke="green" d="M666.5,-354C666.5,-354 545.5,-354 545.5,-354 539.5,-354 533.5,-348 533.5,-342 533.5,-342 533.5,-330 533.5,-330 533.5,-324 539.5,-318 545.5,-318 545.5,-318 666.5,-318 666.5,-318 672.5,-318 678.5,-324 678.5,-330 678.5,-330 678.5,-342 678.5,-342 678.5,-348 672.5,-354 666.5,-354"/>
<text text-anchor="middle" x="606" y="-332.3" font-family="Times,serif" font-size="14.00" fill="red">Die Another Day, 2002</text>
</g>
<!-- PB3&#45;&gt;PB4 -->
<g id="edge14" class="edge"><title>PB3&#45;&gt;PB4</title>
<path fill="none" stroke="black" d="M596.966,-389.697C598.289,-381.983 599.878,-372.712 601.352,-364.112"/>
<polygon fill="black" stroke="black" points="604.828,-364.552 603.068,-354.104 597.928,-363.369 604.828,-364.552"/>
</g>
<!-- DC1 -->
<g id="node24" class="node"><title>DC1</title>
<path fill="yellow" stroke="yellow" d="M677.5,-271C677.5,-271 570.5,-271 570.5,-271 564.5,-271 558.5,-265 558.5,-259 558.5,-259 558.5,-247 558.5,-247 558.5,-241 564.5,-235 570.5,-235 570.5,-235 677.5,-235 677.5,-235 683.5,-235 689.5,-241 689.5,-247 689.5,-247 689.5,-259 689.5,-259 689.5,-265 683.5,-271 677.5,-271"/>
<text text-anchor="middle" x="624" y="-249.3" font-family="Times,serif" font-size="14.00" fill="blue">Casino Royale, 2006</text>
</g>
<!-- PB4&#45;&gt;DC1 -->
<g id="edge25" class="edge"><title>PB4&#45;&gt;DC1</title>
<path fill="none" stroke="black" d="M609.817,-317.822C612.18,-307.19 615.265,-293.306 617.955,-281.204"/>
<polygon fill="black" stroke="black" points="621.435,-281.674 620.188,-271.153 614.602,-280.156 621.435,-281.674"/>
</g>
<!-- DC2 -->
<g id="node25" class="node"><title>DC2</title>
<path fill="yellow" stroke="yellow" d="M697.5,-199C697.5,-199 564.5,-199 564.5,-199 558.5,-199 552.5,-193 552.5,-187 552.5,-187 552.5,-175 552.5,-175 552.5,-169 558.5,-163 564.5,-163 564.5,-163 697.5,-163 697.5,-163 703.5,-163 709.5,-169 709.5,-175 709.5,-175 709.5,-187 709.5,-187 709.5,-193 703.5,-199 697.5,-199"/>
<text text-anchor="middle" x="631" y="-177.3" font-family="Times,serif" font-size="14.00" fill="blue">Quantum of Solace, 2008</text>
</g>
<!-- DC1&#45;&gt;DC2 -->
<g id="edge15" class="edge"><title>DC1&#45;&gt;DC2</title>
<path fill="none" stroke="black" d="M625.73,-234.697C626.502,-226.983 627.429,-217.712 628.289,-209.112"/>
<polygon fill="black" stroke="black" points="631.777,-209.403 629.29,-199.104 624.812,-208.706 631.777,-209.403"/>
</g>
<!-- DC2&#45;&gt;DC3 -->
<g id="edge26" class="edge"><title>DC2&#45;&gt;DC3</title>
<path fill="none" stroke="black" d="M562.906,-162.973C555.103,-160.527 547.326,-157.861 540,-155 521.436,-147.751 501.706,-137.901 485.219,-129.011"/>
<polygon fill="black" stroke="black" points="486.872,-125.926 476.42,-124.193 483.51,-132.066 486.872,-125.926"/>
</g>
<!-- DC4 -->
<g id="node26" class="node"><title>DC4</title>
<path fill="yellow" stroke="yellow" d="M664,-124C664,-124 598,-124 598,-124 592,-124 586,-118 586,-112 586,-112 586,-100 586,-100 586,-94 592,-88 598,-88 598,-88 664,-88 664,-88 670,-88 676,-94 676,-100 676,-100 676,-112 676,-112 676,-118 670,-124 664,-124"/>
<text text-anchor="middle" x="631" y="-102.3" font-family="Times,serif" font-size="14.00" fill="blue">Skyfall, 2012</text>
</g>
<!-- DC2&#45;&gt;DC4 -->
<g id="edge27" class="edge"><title>DC2&#45;&gt;DC4</title>
<path fill="none" stroke="black" d="M631,-162.7C631,-154.245 631,-143.869 631,-134.373"/>
<polygon fill="black" stroke="black" points="634.5,-134.176 631,-124.176 627.5,-134.176 634.5,-134.176"/>
</g>
<!-- DC5 -->
<g id="node27" class="node"><title>DC5</title>
<path fill="yellow" stroke="yellow" d="M673.5,-52C673.5,-52 588.5,-52 588.5,-52 582.5,-52 576.5,-46 576.5,-40 576.5,-40 576.5,-28 576.5,-28 576.5,-22 582.5,-16 588.5,-16 588.5,-16 673.5,-16 673.5,-16 679.5,-16 685.5,-22 685.5,-28 685.5,-28 685.5,-40 685.5,-40 685.5,-46 679.5,-52 673.5,-52"/>
<text text-anchor="middle" x="631" y="-30.3" font-family="Times,serif" font-size="14.00" fill="blue">SPECTRE, 2015</text>
</g>
<!-- DC4&#45;&gt;DC5 -->
<g id="edge16" class="edge"><title>DC4&#45;&gt;DC5</title>
<path fill="none" stroke="black" d="M631,-87.6966C631,-79.9827 631,-70.7125 631,-62.1124"/>
<polygon fill="black" stroke="black" points="634.5,-62.1043 631,-52.1043 627.5,-62.1044 634.5,-62.1043"/>
</g>
<!-- JB -->
<g id="node28" class="node"><title>JB</title>
<path fill="none" stroke="black" d="M170,-1401C170,-1401 74,-1401 74,-1401 68,-1401 62,-1395 62,-1389 62,-1389 62,-1377 62,-1377 62,-1371 68,-1365 74,-1365 74,-1365 170,-1365 170,-1365 176,-1365 182,-1371 182,-1377 182,-1377 182,-1389 182,-1389 182,-1395 176,-1401 170,-1401"/>
<text text-anchor="middle" x="122" y="-1379.3" font-family="Times,serif" font-size="14.00">Bond, James Bond</text>
</g>
<!-- JB&#45;&gt;CR1 -->
<g id="edge17" class="edge"><title>JB&#45;&gt;CR1</title>
<path fill="none" stroke="black" d="M109.927,-1364.97C108.442,-1362.38 107.073,-1359.68 106,-1357 85.2885,-1305.3 82,-1289.7 82,-1234 82,-1234 82,-1234 82,-252 82,-211.151 82,-163.829 82,-134.652"/>
<polygon fill="black" stroke="black" points="85.5001,-134.409 82,-124.409 78.5001,-134.41 85.5001,-134.409"/>
</g>
<!-- JB&#45;&gt;SC1 -->
<g id="edge18" class="edge"><title>JB&#45;&gt;SC1</title>
<path fill="none" stroke="black" d="M131.479,-1364.7C136.311,-1355.88 142.289,-1344.97 147.67,-1335.15"/>
<polygon fill="black" stroke="black" points="150.853,-1336.63 152.589,-1326.18 144.714,-1333.26 150.853,-1336.63"/>
</g>
</g>
</svg>
