<?xml version="1.0" encoding="UTF-8" standalone="no"?>
<!DOCTYPE svg PUBLIC "-//W3C//DTD SVG 1.1//EN"
 "http://www.w3.org/Graphics/SVG/1.1/DTD/svg11.dtd">
<!-- Generated by graphviz version 2.38.0 (20140413.2041)
 -->
<!-- Title: jason_bourne_the_bourne_identity Pages: 1 -->
<svg width="1950pt" height="260pt"
 viewBox="0.00 0.00 1949.79 260.00" xmlns="http://www.w3.org/2000/svg" xmlns:xlink="http://www.w3.org/1999/xlink">
<g id="graph0" class="graph" transform="scale(1 1) rotate(0) translate(4 256)">
<title>jason_bourne_the_bourne_identity</title>
<polygon fill="white" stroke="none" points="-4,4 -4,-256 1945.79,-256 1945.79,4 -4,4"/>
<!-- JB -->
<g id="node1" class="node"><title>JB</title>
<ellipse fill="none" stroke="black" cx="897.497" cy="-162" rx="58.4896" ry="18"/>
<text text-anchor="middle" x="897.497" y="-158.3" font-family="Times,serif" font-size="14.00">Jason Bourne</text>
</g>
<!-- FR -->
<g id="node2" class="node"><title>FR</title>
<ellipse fill="none" stroke="black" cx="779.497" cy="-90" rx="37.0935" ry="18"/>
<text text-anchor="middle" x="779.497" y="-86.3" font-family="Times,serif" font-size="14.00">Friends</text>
</g>
<!-- JB&#45;&gt;FR -->
<g id="edge1" class="edge"><title>JB&#45;&gt;FR</title>
<path fill="none" stroke="black" d="M871.893,-145.811C853.987,-135.189 829.962,-120.937 810.899,-109.628"/>
<polygon fill="black" stroke="black" points="812.646,-106.595 802.26,-104.503 809.074,-112.615 812.646,-106.595"/>
</g>
<!-- FO -->
<g id="node3" class="node"><title>FO</title>
<ellipse fill="none" stroke="black" cx="593.497" cy="-90" rx="27.0966" ry="18"/>
<text text-anchor="middle" x="593.497" y="-86.3" font-family="Times,serif" font-size="14.00">Foes</text>
</g>
<!-- JB&#45;&gt;FO -->
<g id="edge2" class="edge"><title>JB&#45;&gt;FO</title>
<path fill="none" stroke="black" d="M854.004,-149.961C845.868,-147.943 837.43,-145.882 829.497,-144 758.464,-127.147 675.069,-108.741 628.862,-98.6639"/>
<polygon fill="black" stroke="black" points="629.553,-95.2325 619.037,-96.5246 628.064,-102.072 629.553,-95.2325"/>
</g>
<!-- LO -->
<g id="node4" class="node"><title>LO</title>
<ellipse fill="none" stroke="black" cx="1145.5" cy="-90" rx="45.4919" ry="18"/>
<text text-anchor="middle" x="1145.5" y="-86.3" font-family="Times,serif" font-size="14.00">Locations</text>
</g>
<!-- JB&#45;&gt;LO -->
<g id="edge3" class="edge"><title>JB&#45;&gt;LO</title>
<path fill="none" stroke="black" d="M939.007,-149.284C983.455,-136.738 1053.78,-116.887 1099.79,-103.902"/>
<polygon fill="black" stroke="black" points="1100.83,-107.245 1109.5,-101.16 1098.93,-100.509 1100.83,-107.245"/>
</g>
<!-- PJ -->
<g id="node5" class="node"><title>PJ</title>
<ellipse fill="none" stroke="black" cx="364.497" cy="-18" rx="35.9954" ry="18"/>
<text text-anchor="middle" x="364.497" y="-14.3" font-family="Times,serif" font-size="14.00">Project</text>
</g>
<!-- JB&#45;&gt;PJ -->
<g id="edge4" class="edge"><title>JB&#45;&gt;PJ</title>
<path fill="none" stroke="black" d="M889.005,-143.86C877.659,-122.981 855.455,-88.4646 825.497,-72 754.765,-33.1262 512.345,-22.6367 410.325,-19.9135"/>
<polygon fill="black" stroke="black" points="410.409,-16.4146 400.323,-19.6596 410.231,-23.4123 410.409,-16.4146"/>
</g>
<!-- AL -->
<g id="node6" class="node"><title>AL</title>
<ellipse fill="none" stroke="black" cx="1622.5" cy="-90" rx="36.2938" ry="18"/>
<text text-anchor="middle" x="1622.5" y="-86.3" font-family="Times,serif" font-size="14.00">Aliases</text>
</g>
<!-- JB&#45;&gt;AL -->
<g id="edge5" class="edge"><title>JB&#45;&gt;AL</title>
<path fill="none" stroke="black" d="M939.35,-149.391C947.944,-147.331 956.971,-145.4 965.497,-144 995.62,-139.054 1432.1,-105.523 1576.49,-94.5021"/>
<polygon fill="black" stroke="black" points="1577.07,-97.9684 1586.78,-93.7179 1576.54,-90.9887 1577.07,-97.9684"/>
</g>
<!-- MI -->
<g id="node7" class="node"><title>MI</title>
<ellipse fill="none" stroke="black" cx="1349.5" cy="-90" rx="39.7935" ry="18"/>
<text text-anchor="middle" x="1349.5" y="-86.3" font-family="Times,serif" font-size="14.00">Mission</text>
</g>
<!-- JB&#45;&gt;MI -->
<g id="edge6" class="edge"><title>JB&#45;&gt;MI</title>
<path fill="none" stroke="black" d="M940.144,-149.592C948.514,-147.565 957.253,-145.595 965.497,-144 1028.98,-131.722 1213.49,-108.018 1301.59,-96.9562"/>
<polygon fill="black" stroke="black" points="1302.1,-100.42 1311.58,-95.7032 1301.23,-93.474 1302.1,-100.42"/>
</g>
<!-- MK -->
<g id="node8" class="node"><title>MK</title>
<ellipse fill="none" stroke="black" cx="762.497" cy="-162" rx="58.4896" ry="18"/>
<text text-anchor="middle" x="762.497" y="-158.3" font-family="Times,serif" font-size="14.00">Marie Kreutz</text>
</g>
<!-- MK&#45;&gt;FR -->
<g id="edge7" class="edge"><title>MK&#45;&gt;FR</title>
<path fill="none" stroke="black" d="M766.699,-143.697C768.593,-135.898 770.874,-126.509 772.981,-117.829"/>
<polygon fill="black" stroke="black" points="776.384,-118.648 775.343,-108.104 769.582,-116.996 776.384,-118.648"/>
</g>
<!-- EAM -->
<g id="node9" class="node"><title>EAM</title>
<ellipse fill="none" stroke="black" cx="700.497" cy="-234" rx="36.2938" ry="18"/>
<text text-anchor="middle" x="700.497" y="-230.3" font-family="Times,serif" font-size="14.00">Eamon</text>
</g>
<!-- EAM&#45;&gt;MK -->
<g id="edge8" class="edge"><title>EAM&#45;&gt;MK</title>
<path fill="none" stroke="black" d="M714.566,-217.116C722.347,-208.331 732.18,-197.229 740.913,-187.37"/>
<polygon fill="black" stroke="black" points="743.609,-189.604 747.619,-179.797 738.369,-184.963 743.609,-189.604"/>
</g>
<!-- BLO -->
<g id="node10" class="node"><title>BLO</title>
<ellipse fill="none" stroke="black" cx="824.497" cy="-234" rx="69.5877" ry="18"/>
<text text-anchor="middle" x="824.497" y="-230.3" font-family="Times,serif" font-size="14.00">Bloody, the Dog</text>
</g>
<!-- BLO&#45;&gt;MK -->
<g id="edge9" class="edge"><title>BLO&#45;&gt;MK</title>
<path fill="none" stroke="black" d="M809.489,-216.055C801.873,-207.457 792.484,-196.857 784.106,-187.397"/>
<polygon fill="black" stroke="black" points="786.618,-184.954 777.367,-179.789 781.378,-189.596 786.618,-184.954"/>
</g>
<!-- CLA -->
<g id="node11" class="node"><title>CLA</title>
<ellipse fill="none" stroke="black" cx="950.497" cy="-234" rx="38.1938" ry="18"/>
<text text-anchor="middle" x="950.497" y="-230.3" font-family="Times,serif" font-size="14.00">Claudia</text>
</g>
<!-- CLA&#45;&gt;MK -->
<g id="edge10" class="edge"><title>CLA&#45;&gt;MK</title>
<path fill="none" stroke="black" d="M921.122,-222.062C890.821,-210.78 843.155,-193.032 807.978,-179.934"/>
<polygon fill="black" stroke="black" points="809.005,-176.582 798.412,-176.373 806.562,-183.142 809.005,-176.582"/>
</g>
<!-- ALA -->
<g id="node12" class="node"><title>ALA</title>
<ellipse fill="none" stroke="black" cx="615.497" cy="-234" rx="30.5947" ry="18"/>
<text text-anchor="middle" x="615.497" y="-230.3" font-family="Times,serif" font-size="14.00">Alain</text>
</g>
<!-- ALA&#45;&gt;MK -->
<g id="edge11" class="edge"><title>ALA&#45;&gt;MK</title>
<path fill="none" stroke="black" d="M638.466,-222.062C661.003,-211.331 695.824,-194.749 722.841,-181.884"/>
<polygon fill="black" stroke="black" points="724.515,-184.963 732.039,-177.504 721.505,-178.643 724.515,-184.963"/>
</g>
<!-- PRO -->
<g id="node13" class="node"><title>PRO</title>
<ellipse fill="none" stroke="black" cx="641.497" cy="-162" rx="44.393" ry="18"/>
<text text-anchor="middle" x="641.497" y="-158.3" font-family="Times,serif" font-size="14.00">Professor</text>
</g>
<!-- PRO&#45;&gt;FO -->
<g id="edge12" class="edge"><title>PRO&#45;&gt;FO</title>
<path fill="none" stroke="black" d="M630.122,-144.411C624.179,-135.744 616.792,-124.971 610.212,-115.375"/>
<polygon fill="black" stroke="black" points="613.002,-113.256 604.46,-106.988 607.229,-117.215 613.002,-113.256"/>
</g>
<!-- TRE -->
<g id="node21" class="node"><title>TRE</title>
<ellipse fill="none" stroke="black" cx="364.497" cy="-90" rx="50.0912" ry="18"/>
<text text-anchor="middle" x="364.497" y="-86.3" font-family="Times,serif" font-size="14.00">Treadstone</text>
</g>
<!-- PRO&#45;&gt;TRE -->
<g id="edge23" class="edge"><title>PRO&#45;&gt;TRE</title>
<path fill="none" stroke="black" d="M608.193,-150.105C601.373,-147.99 594.224,-145.856 587.497,-144 529.187,-127.915 461.502,-112.246 416.132,-102.169"/>
<polygon fill="black" stroke="black" points="416.755,-98.7227 406.235,-99.9815 415.244,-105.558 416.755,-98.7227"/>
</g>
<!-- MAN -->
<g id="node14" class="node"><title>MAN</title>
<ellipse fill="none" stroke="black" cx="453.497" cy="-162" rx="42.4939" ry="18"/>
<text text-anchor="middle" x="453.497" y="-158.3" font-family="Times,serif" font-size="14.00">Manhein</text>
</g>
<!-- MAN&#45;&gt;FO -->
<g id="edge13" class="edge"><title>MAN&#45;&gt;FO</title>
<path fill="none" stroke="black" d="M479.83,-147.834C503.57,-135.964 538.465,-118.516 563.322,-106.088"/>
<polygon fill="black" stroke="black" points="564.934,-109.195 572.313,-101.592 561.803,-102.934 564.934,-109.195"/>
</g>
<!-- MAN&#45;&gt;TRE -->
<g id="edge22" class="edge"><title>MAN&#45;&gt;TRE</title>
<path fill="none" stroke="black" d="M434.185,-145.811C421.992,-136.221 406.037,-123.672 392.471,-113.002"/>
<polygon fill="black" stroke="black" points="394.411,-110.075 384.387,-106.644 390.084,-115.577 394.411,-110.075"/>
</g>
<!-- CAS -->
<g id="node15" class="node"><title>CAS</title>
<ellipse fill="none" stroke="black" cx="546.497" cy="-162" rx="32.4942" ry="18"/>
<text text-anchor="middle" x="546.497" y="-158.3" font-family="Times,serif" font-size="14.00">Castel</text>
</g>
<!-- CAS&#45;&gt;FO -->
<g id="edge14" class="edge"><title>CAS&#45;&gt;FO</title>
<path fill="none" stroke="black" d="M557.398,-144.765C563.294,-135.983 570.693,-124.963 577.255,-115.19"/>
<polygon fill="black" stroke="black" points="580.31,-116.919 582.979,-106.666 574.498,-113.017 580.31,-116.919"/>
</g>
<!-- CAS&#45;&gt;TRE -->
<g id="edge21" class="edge"><title>CAS&#45;&gt;TRE</title>
<path fill="none" stroke="black" d="M521.215,-150.659C515.713,-148.439 509.917,-146.123 504.497,-144 472.026,-131.284 435.133,-117.338 407.373,-106.944"/>
<polygon fill="black" stroke="black" points="408.55,-103.648 397.958,-103.424 406.099,-110.204 408.55,-103.648"/>
</g>
<!-- MAR -->
<g id="node16" class="node"><title>MAR</title>
<ellipse fill="none" stroke="black" cx="1145.5" cy="-162" rx="64.189" ry="18"/>
<text text-anchor="middle" x="1145.5" y="-158.3" font-family="Times,serif" font-size="14.00">Marseille&#39;s Sea</text>
</g>
<!-- MAR&#45;&gt;LO -->
<g id="edge15" class="edge"><title>MAR&#45;&gt;LO</title>
<path fill="none" stroke="black" d="M1145.5,-143.697C1145.5,-135.983 1145.5,-126.712 1145.5,-118.112"/>
<polygon fill="black" stroke="black" points="1149,-118.104 1145.5,-108.104 1142,-118.104 1149,-118.104"/>
</g>
<!-- GEM -->
<g id="node17" class="node"><title>GEM</title>
<ellipse fill="none" stroke="black" cx="1262.5" cy="-234" rx="81.4863" ry="18"/>
<text text-anchor="middle" x="1262.5" y="-230.3" font-family="Times,serif" font-size="14.00">Gemeinschaft Bank</text>
</g>
<!-- ZUR -->
<g id="node18" class="node"><title>ZUR</title>
<ellipse fill="none" stroke="black" cx="1262.5" cy="-162" rx="34.394" ry="18"/>
<text text-anchor="middle" x="1262.5" y="-158.3" font-family="Times,serif" font-size="14.00">Zurich</text>
</g>
<!-- GEM&#45;&gt;ZUR -->
<g id="edge16" class="edge"><title>GEM&#45;&gt;ZUR</title>
<path fill="none" stroke="black" d="M1262.5,-215.697C1262.5,-207.983 1262.5,-198.712 1262.5,-190.112"/>
<polygon fill="black" stroke="black" points="1266,-190.104 1262.5,-180.104 1259,-190.104 1266,-190.104"/>
</g>
<!-- ZUR&#45;&gt;LO -->
<g id="edge17" class="edge"><title>ZUR&#45;&gt;LO</title>
<path fill="none" stroke="black" d="M1240.76,-147.998C1223.23,-137.506 1198.28,-122.579 1178.31,-110.633"/>
<polygon fill="black" stroke="black" points="1179.91,-107.511 1169.53,-105.38 1176.32,-113.518 1179.91,-107.511"/>
</g>
<!-- PAR -->
<g id="node19" class="node"><title>PAR</title>
<ellipse fill="none" stroke="black" cx="1343.5" cy="-162" rx="28.6953" ry="18"/>
<text text-anchor="middle" x="1343.5" y="-158.3" font-family="Times,serif" font-size="14.00">Paris</text>
</g>
<!-- PAR&#45;&gt;LO -->
<g id="edge18" class="edge"><title>PAR&#45;&gt;LO</title>
<path fill="none" stroke="black" d="M1321.15,-150.553C1316.05,-148.293 1310.62,-145.988 1305.5,-144 1267.18,-129.126 1222.74,-114.618 1190.43,-104.552"/>
<polygon fill="black" stroke="black" points="1191.4,-101.189 1180.82,-101.575 1189.33,-107.876 1191.4,-101.189"/>
</g>
<!-- MYK -->
<g id="node20" class="node"><title>MYK</title>
<ellipse fill="none" stroke="black" cx="1018.5" cy="-162" rx="44.393" ry="18"/>
<text text-anchor="middle" x="1018.5" y="-158.3" font-family="Times,serif" font-size="14.00">Mykonos</text>
</g>
<!-- MYK&#45;&gt;LO -->
<g id="edge19" class="edge"><title>MYK&#45;&gt;LO</title>
<path fill="none" stroke="black" d="M1043.59,-147.17C1062.94,-136.502 1089.92,-121.63 1111.26,-109.869"/>
<polygon fill="black" stroke="black" points="1112.96,-112.933 1120.02,-105.041 1109.58,-106.803 1112.96,-112.933"/>
</g>
<!-- TRE&#45;&gt;PJ -->
<g id="edge20" class="edge"><title>TRE&#45;&gt;PJ</title>
<path fill="none" stroke="black" d="M364.497,-71.6966C364.497,-63.9827 364.497,-54.7125 364.497,-46.1124"/>
<polygon fill="black" stroke="black" points="367.997,-46.1043 364.497,-36.1043 360.997,-46.1044 367.997,-46.1043"/>
</g>
<!-- BLA -->
<g id="node22" class="node"><title>BLA</title>
<ellipse fill="none" stroke="black" cx="115.497" cy="-90" rx="48.1917" ry="18"/>
<text text-anchor="middle" x="115.497" y="-86.3" font-family="Times,serif" font-size="14.00">Blackbriar</text>
</g>
<!-- BLA&#45;&gt;PJ -->
<g id="edge24" class="edge"><title>BLA&#45;&gt;PJ</title>
<path fill="none" stroke="black" d="M152.775,-78.5203C198.783,-65.5864 276.726,-43.6746 324.117,-30.3518"/>
<polygon fill="black" stroke="black" points="325.351,-33.6406 334.031,-27.5648 323.457,-26.9018 325.351,-33.6406"/>
</g>
<!-- CON -->
<g id="node23" class="node"><title>CON</title>
<ellipse fill="none" stroke="black" cx="278.497" cy="-162" rx="38.9931" ry="18"/>
<text text-anchor="middle" x="278.497" y="-158.3" font-family="Times,serif" font-size="14.00">Conklin</text>
</g>
<!-- CON&#45;&gt;TRE -->
<g id="edge25" class="edge"><title>CON&#45;&gt;TRE</title>
<path fill="none" stroke="black" d="M297.158,-145.811C308.94,-136.221 324.357,-123.672 337.466,-113.002"/>
<polygon fill="black" stroke="black" points="339.731,-115.671 345.277,-106.644 335.312,-110.242 339.731,-115.671"/>
</g>
<!-- ABB -->
<g id="node24" class="node"><title>ABB</title>
<ellipse fill="none" stroke="black" cx="32.4971" cy="-162" rx="32.4942" ry="18"/>
<text text-anchor="middle" x="32.4971" y="-158.3" font-family="Times,serif" font-size="14.00">Abbot</text>
</g>
<!-- ABB&#45;&gt;BLA -->
<g id="edge26" class="edge"><title>ABB&#45;&gt;BLA</title>
<path fill="none" stroke="black" d="M49.6948,-146.496C61.0981,-136.879 76.2812,-124.074 89.1893,-113.187"/>
<polygon fill="black" stroke="black" points="91.4905,-115.825 96.8784,-106.703 86.9775,-110.474 91.4905,-115.825"/>
</g>
<!-- PIC -->
<g id="node25" class="node"><title>PIC</title>
<ellipse fill="none" stroke="black" cx="364.497" cy="-162" rx="28.6953" ry="18"/>
<text text-anchor="middle" x="364.497" y="-158.3" font-family="Times,serif" font-size="14.00">Picot</text>
</g>
<!-- PIC&#45;&gt;TRE -->
<g id="edge27" class="edge"><title>PIC&#45;&gt;TRE</title>
<path fill="none" stroke="black" d="M364.497,-143.697C364.497,-135.983 364.497,-126.712 364.497,-118.112"/>
<polygon fill="black" stroke="black" points="367.997,-118.104 364.497,-108.104 360.997,-118.104 367.997,-118.104"/>
</g>
<!-- NIK -->
<g id="node26" class="node"><title>NIK</title>
<ellipse fill="none" stroke="black" cx="115.497" cy="-162" rx="32.4942" ry="18"/>
<text text-anchor="middle" x="115.497" y="-158.3" font-family="Times,serif" font-size="14.00">Nicky</text>
</g>
<!-- NIK&#45;&gt;TRE -->
<g id="edge28" class="edge"><title>NIK&#45;&gt;TRE</title>
<path fill="none" stroke="black" d="M139.996,-150.171C145.378,-147.981 151.087,-145.801 156.497,-144 208.871,-126.569 270.274,-111.566 312.722,-102.016"/>
<polygon fill="black" stroke="black" points="313.552,-105.417 322.551,-99.8265 312.03,-98.585 313.552,-105.417"/>
</g>
<!-- NIK&#45;&gt;BLA -->
<g id="edge29" class="edge"><title>NIK&#45;&gt;BLA</title>
<path fill="none" stroke="black" d="M115.497,-143.697C115.497,-135.983 115.497,-126.712 115.497,-118.112"/>
<polygon fill="black" stroke="black" points="118.997,-118.104 115.497,-108.104 111.997,-118.104 118.997,-118.104"/>
</g>
<!-- ZOR -->
<g id="node27" class="node"><title>ZOR</title>
<ellipse fill="none" stroke="black" cx="193.497" cy="-162" rx="27.8951" ry="18"/>
<text text-anchor="middle" x="193.497" y="-158.3" font-family="Times,serif" font-size="14.00">Zorn</text>
</g>
<!-- ZOR&#45;&gt;TRE -->
<g id="edge30" class="edge"><title>ZOR&#45;&gt;TRE</title>
<path fill="none" stroke="black" d="M215.322,-150.735C220.288,-148.466 225.556,-146.11 230.497,-144 260.823,-131.047 295.445,-117.382 321.899,-107.172"/>
<polygon fill="black" stroke="black" points="323.176,-110.431 331.253,-103.574 320.663,-103.897 323.176,-110.431"/>
</g>
<!-- JMK -->
<g id="node28" class="node"><title>JMK</title>
<ellipse fill="none" stroke="black" cx="1836.5" cy="-162" rx="105.082" ry="18"/>
<text text-anchor="middle" x="1836.5" y="-158.3" font-family="Times,serif" font-size="14.00">John Michael Kane [FRA]</text>
</g>
<!-- JMK&#45;&gt;AL -->
<g id="edge31" class="edge"><title>JMK&#45;&gt;AL</title>
<path fill="none" stroke="black" d="M1790.06,-145.811C1751.75,-133.278 1697.98,-115.691 1661.78,-103.848"/>
<polygon fill="black" stroke="black" points="1662.65,-100.452 1652.06,-100.669 1660.47,-107.105 1662.65,-100.452"/>
</g>
<!-- GIP -->
<g id="node29" class="node"><title>GIP</title>
<ellipse fill="none" stroke="black" cx="1622.5" cy="-162" rx="90.9839" ry="18"/>
<text text-anchor="middle" x="1622.5" y="-158.3" font-family="Times,serif" font-size="14.00">Gilberto Piento [BRA]</text>
</g>
<!-- GIP&#45;&gt;AL -->
<g id="edge32" class="edge"><title>GIP&#45;&gt;AL</title>
<path fill="none" stroke="black" d="M1622.5,-143.697C1622.5,-135.983 1622.5,-126.712 1622.5,-118.112"/>
<polygon fill="black" stroke="black" points="1626,-118.104 1622.5,-108.104 1619,-118.104 1626,-118.104"/>
</g>
<!-- WOM -->
<g id="node30" class="node"><title>WOM</title>
<ellipse fill="none" stroke="black" cx="1451.5" cy="-162" rx="61.99" ry="18"/>
<text text-anchor="middle" x="1451.5" y="-158.3" font-family="Times,serif" font-size="14.00">Kill Wombosi</text>
</g>
<!-- WOM&#45;&gt;MI -->
<g id="edge33" class="edge"><title>WOM&#45;&gt;MI</title>
<path fill="none" stroke="black" d="M1428.35,-145.116C1413.67,-135.042 1394.55,-121.919 1378.81,-111.119"/>
<polygon fill="black" stroke="black" points="1380.69,-108.165 1370.47,-105.393 1376.73,-113.937 1380.69,-108.165"/>
</g>
</g>
</svg>
